<svg transform="scale(1)" version="1.1" id="vF68GAe2ZH" xmlns="http://www.w3.org/2000/svg" xmlns:xlink="http://www.w3.org/1999/xlink" x="0px" y="0px" viewBox="0 0 500 500" xml:space="preserve" class="pbimage_pbimage__wrapper__image__0LEis false"><title>Collaboration 5</title><style type="text/css"> .st0{fill:#241F20;} .st1{fill:#FFFFFF;} .st2{fill:#D1D3D4;} .st3{fill:#61E0FA;}
 .st3{fill:#e34a6f;}
 .st2{fill:#a8c5ec;}
 .st1{fill:#FFFFFF;}
 .st0{fill:#241F20;}</style><g id="Floor"><path class="st0" d="M475.4,363.1h-451c-0.4,0-0.8-0.3-0.8-0.8s0.3-0.8,0.8-0.8h451c0.4,0,0.8,0.3,0.8,0.8S475.8,363.1,475.4,363.1
		L475.4,363.1z" fill="#241F20"></path></g><g id="Graphic"><polygon class="st0" points="386.9,131 219.1,131 229.7,57 397.5,57 	"></polygon><path class="st0" d="M386.9,131.8H219.1c-0.2,0-0.4-0.1-0.6-0.3c-0.1-0.2-0.2-0.4-0.2-0.6L229,56.8c0.1-0.4,0.4-0.6,0.8-0.7h167.8
		c0.2,0,0.4,0.1,0.6,0.3c0.1,0.2,0.2,0.4,0.2,0.6l-10.6,74.1C387.6,131.5,387.3,131.8,386.9,131.8z M219.9,130.3h166.3l10.4-72.6
		H230.4L219.9,130.3z"></path><polygon class="st0" points="386.1,139.3 218.3,139.3 194.7,304.2 362.5,304.2 	"></polygon><path class="st0" d="M362.5,304.9H194.7c-0.2,0-0.4-0.1-0.6-0.2c-0.1-0.2-0.2-0.4-0.2-0.6l23.6-164.8c0.1-0.4,0.4-0.6,0.7-0.6
		h167.8c0.2,0,0.4,0.1,0.6,0.3c0.1,0.2,0.2,0.4,0.2,0.6l-23.6,164.9C363.2,304.7,362.9,304.9,362.5,304.9z M195.6,303.4h166.3
		l23.4-163.3H219L195.6,303.4z"></path><polygon class="st1" points="380.1,131 212.3,131 222.9,57 390.8,57 	"></polygon><path class="st0" d="M380.1,131.8H212.3c-0.2,0-0.4-0.1-0.6-0.3c-0.1-0.2-0.2-0.4-0.2-0.6l10.6-74.1c0.1-0.4,0.4-0.6,0.8-0.7h167.8
		c0.2,0,0.4,0.1,0.6,0.3c0.1,0.2,0.2,0.4,0.2,0.6l-10.6,74.1C380.8,131.5,380.5,131.8,380.1,131.8z M213.2,130.3h166.3l10.4-72.6
		H223.6L213.2,130.3z"></path><path class="st2" d="M373.8,98.9H228.4c-0.4,0-0.7-0.3-0.7-0.7c0,0,0-0.1,0-0.1l4.4-31c0.1-0.4,0.4-0.6,0.7-0.7h145.4
		c0.2,0,0.4,0.1,0.6,0.3c0.1,0.2,0.2,0.4,0.2,0.6l-4.4,31C374.5,98.7,374.2,98.9,373.8,98.9z M229.3,97.4h143.9l4.2-29.4H233.5
		L229.3,97.4z"></path><polygon class="st1" points="379.4,139.3 211.6,139.3 187.9,304.2 355.8,304.2 	"></polygon><path class="st0" d="M355.8,304.9H188c-0.2,0-0.4-0.1-0.6-0.2c-0.1-0.2-0.2-0.4-0.2-0.6l23.6-164.9c0.1-0.4,0.4-0.6,0.7-0.6h167.8
		c0.2,0,0.4,0.1,0.6,0.3c0.1,0.2,0.2,0.4,0.2,0.6l-23.6,164.9C356.4,304.7,356.1,304.9,355.8,304.9z M188.8,303.4h166.3l23.4-163.3
		H212.2L188.8,303.4z"></path><path class="st2" d="M360.6,182H215.2c-0.2,0-0.4-0.1-0.6-0.3c-0.1-0.2-0.2-0.4-0.2-0.6l4.4-31c0-0.4,0.4-0.6,0.7-0.6h145.4
		c0.4,0,0.7,0.3,0.7,0.7c0,0,0,0.1,0,0.1l-4.4,31C361.3,181.7,361,182,360.6,182z M216.1,180.5H360l4.2-29.5H220.3L216.1,180.5z"></path><path class="st2" d="M354.5,223.7H209.1c-0.2,0-0.4-0.1-0.6-0.3c-0.1-0.2-0.2-0.4-0.2-0.6l4.4-31c0.1-0.4,0.4-0.6,0.7-0.6h145.4
		c0.2,0,0.4,0.1,0.6,0.3c0.1,0.2,0.2,0.4,0.2,0.6l-4.4,31C355.1,223.4,354.8,223.7,354.5,223.7z M209.9,222.2h143.9l4.2-29.5H214.1
		L209.9,222.2z"></path></g><g id="Character_II"><polygon class="st1" points="298.9,278.5 283.6,253.9 312.4,249 313.2,267.1 	"></polygon><path class="st0" d="M298.9,279.3h-0.1c-0.2,0-0.4-0.2-0.5-0.3L283,254.3c-0.2-0.3-0.1-0.8,0.2-1c0.1-0.1,0.2-0.1,0.3-0.1l28.8-4.9
		c0.2,0,0.4,0,0.6,0.2c0.2,0.1,0.3,0.3,0.3,0.6l0.8,18.1c0,0.2-0.1,0.5-0.3,0.6l-14.3,11.4C299.3,279.2,299.1,279.3,298.9,279.3z
		 M284.8,254.4l14.3,23l13.3-10.6l-0.7-16.9L284.8,254.4z"></path><polygon class="st1" points="339.1,260 253.7,260 261.7,204.3 347.1,204.3 	"></polygon><path class="st0" d="M339.1,260.8h-85.4c-0.2,0-0.4-0.1-0.6-0.3c-0.1-0.2-0.2-0.4-0.2-0.6l8-55.8c0.1-0.4,0.4-0.6,0.7-0.6h85.4
		c0.2,0,0.4,0.1,0.6,0.3c0.1,0.2,0.2,0.4,0.2,0.6l-8,55.8C339.8,260.5,339.5,260.8,339.1,260.8z M254.6,259.3h83.9l7.8-54.3h-83.9
		L254.6,259.3z"></path><polygon class="st1" points="334.2,260 248.8,260 256.8,204.3 342.2,204.3 	"></polygon><path class="st0" d="M334.2,260.8h-85.4c-0.4,0-0.8-0.4-0.7-0.8c0,0,0-0.1,0-0.1l8-55.8c0.1-0.4,0.4-0.6,0.8-0.6h85.4
		c0.4,0,0.7,0.3,0.7,0.7c0,0,0,0.1,0,0.1l-8,55.8C334.9,260.5,334.6,260.8,334.2,260.8z M249.7,259.3h83.9l7.8-54.3h-83.9
		L249.7,259.3z"></path><path class="st1" d="M293.8,270.3c2.7,8.8,6.7,9.7,6.7,9.7l12.2-4.5l3.8-6.2c0,0-2.7-4.6-2-6.3c1.6-4.5,2.1-8.9,4.9-12
		c3.9-4.4-5.9-3.4-8.4,3.7c-2.3,6.6-9.3,5.1-12.4,11.3"></path><path class="st0" d="M300.5,280.8h-0.2c-0.2,0-4.5-1.1-7.3-10.2c-0.1-0.4,0-0.8,0.4-1c0.4-0.1,0.8,0,1,0.4c0,0,0,0.1,0,0.1
		c2.2,7.1,5.2,8.8,6,9.1l11.7-4.3l3.4-5.6c-0.7-1.3-2.5-4.8-1.9-6.5c0.5-1.3,0.9-2.6,1.2-3.9c0.9-3.1,1.7-6,3.8-8.4
		c0.7-0.8,0.7-1.2,0.7-1.2c-0.4-0.2-0.8-0.2-1.2-0.1c-3.1,0.6-5.6,2.8-6.6,5.8c-1.3,3.7-4,5.1-6.6,6.4c-2.3,1.2-4.5,2.3-5.9,5
		c-0.2,0.4-0.6,0.6-1,0.4s-0.6-0.6-0.4-1c0,0,0,0,0-0.1c1.6-3.2,4.1-4.5,6.5-5.7s4.7-2.4,5.8-5.6c1.3-3.6,4.5-6.3,8.3-6.8
		c1.5-0.1,2.1,0.6,2.3,1c0.4,0.8,0.1,1.8-1,2.9c-1.9,2.1-2.6,4.9-3.5,7.8c-0.4,1.3-0.8,2.6-1.3,4c-0.4,1,1,4,2,5.7
		c0.1,0.2,0.1,0.5,0,0.8l-3.8,6.2c-0.1,0.1-0.2,0.3-0.4,0.3l-12.2,4.5C300.7,280.7,300.6,280.8,300.5,280.8z"></path><path class="st3" d="M382.7,281c0,0-15.8-2.7-28,3.9c-7.5,4.1-16.5,7.5-18.9,5.4c-6.9-6.3-19.8-23.4-19.8-23.4l-19.9,15.5
		c0,0,17.6,26.9,29.8,34.2c10.2,6.1,45.1-5.4,45.1-5.4S396.1,282.7,382.7,281z"></path><path class="st0" d="M363.2,401.7c24.3,5,60.3-14.1,68.9-30.6s-20.4-8.7-20.4-8.7l-57.3-0.9c0,0-17,0.8-27.9,2.5
		c-14.6,2.2-19,8-19,8S338.9,396.8,363.2,401.7z"></path><path class="st3" d="M421.1,353l1.5,9.5l-41.2,6.2c-1.5-0.1-2.8-0.2-4.1-0.4c-15.5-1.9-23-6.6-23-6.6c1.1-11,1.7-22.1,1.5-33.1
		c-0.1-6.2-10.6-15.1-5.5-24.1c4.2-7.1,9-13.9,14.3-20.3c11.4-13.5,62.1-4.7,63.8,20.8S421.1,353,421.1,353z"></path><path class="st0" d="M373.2,283.6c0,0-7.1,8.3-4.4,12.7s25.9-3.3,26.9-15.1S373.2,283.6,373.2,283.6z"></path><path class="st0" d="M327.8,405.4c-3.8-0.4-7.7-0.3-11.5,0.4c-6.9,1.1-14.6-0.4-18.9,0c-7.9,0.8-11.3,6.4-6.3,14.7
		s17.3,6.5,27.7,4.5s22.9-6.9,22.9-6.9L327.8,405.4L327.8,405.4z"></path><path class="st1" d="M325.5,405.4c-3.1,0.7-5,3.7-4.5,6.8c0.7,5.6,12.5,5.8,13.2,5.8S325.5,405.4,325.5,405.4L325.5,405.4z"></path><path class="st0" d="M334.2,418.7L334.2,418.7c-1.3,0-13.1-0.4-13.9-6.5c-0.6-3.5,1.6-6.8,5.1-7.6h0.2l0,0c0.2,0,0.5,0.1,0.6,0.3
		c9.2,12.5,9,12.9,8.8,13.4C334.7,418.6,334.5,418.7,334.2,418.7z M325.2,406.2c-2.5,0.8-4,3.3-3.5,5.8c0.5,3.6,7,4.9,11.2,5.1
		C331.7,415.2,328.4,410.5,325.2,406.2z"></path><path class="st0" d="M412.6,418.1c0.4,0.2,0.1,4.2,14.1,5.3c13.6,1.1,14.7,11.5,24.4,2.5s-1.7-17.6-8.6-19.7s-21.9-2.8-25.6,0.7
		S412.6,418.1,412.6,418.1L412.6,418.1z"></path><path class="st1" d="M408.2,415.1c0,0,6.3,5.3,10.5,4.6s10-2.9,7.7-7.5S409,405,409,405L408.2,415.1L408.2,415.1z"></path><path class="st0" d="M418,420.6c-4.4,0-10-4.7-10.3-4.9c-0.2-0.2-0.3-0.4-0.3-0.6l0.8-10.1c0-0.2,0.1-0.4,0.3-0.5
		c0.2-0.1,0.4-0.2,0.6-0.1c1.6,0.3,15.5,2.9,18,7.7c0.8,1.3,0.8,2.8,0.2,4.2c-1.6,3.1-6.9,4.1-8.4,4.4
		C418.6,420.5,418.3,420.6,418,420.6z M409,414.8c1.3,1,6.3,4.8,9.6,4.2c2.7-0.4,6.3-1.6,7.3-3.6c0.4-0.9,0.4-2-0.2-2.8
		c-1.7-3.3-11.5-5.8-16.1-6.7L409,414.8z"></path><path class="st1" d="M388.4,337.4c-5.6,0.2-11.3-0.2-16.8-1.2c-4.3-0.9-8-1.8-12.5-1.7c-5.6,0.2-11.1,1.3-16.3,3.4
		c-0.2,0.1-0.4,0.2-0.6,0.4c-0.5,0.7,0.7,1.4,1.5,1.4c2.2,0.1,4.5-0.1,6.6-0.7c-5.4,1.9-10.5,4.4-15.1,7.7c-0.5,0.4-1.1,1-0.9,1.5
		s1.3,0.5,2,0.2l12.2-5.3c-3.2,1.2-6.1,2.9-8.7,5.1c-0.4,0.3-0.8,0.7-0.7,1.2c0.1,0.8,1.4,0.7,2.1,0.3c3.7-1.8,7.3-3.8,10.7-6.2
		l-7.6,5.6c-0.1,0.6,0.5,1.1,1.1,1.2c0.6,0,1.2-0.2,1.7-0.6c2.8-1.5,5.6-3.1,8.4-4.6l-5.3,3.5c-0.8,0.6-1.8,1.5-1.4,2.4
		c0.5,1.1,2,0.8,3.1,0.3c4.3-1.8,8.8-3.1,13.5-3.9c1.7-0.3,3.3-1,5-0.9c2.5,0.1,5.2,1.2,7.6,1.8c3.8,0.9,7.5,1.9,11.2,2.8"></path><path class="st0" d="M350.4,352.5c-0.9,0.1-1.7-0.4-2-1.2c-0.2-0.4-0.2-0.8-0.1-1.2l-0.6,0.4c-0.6,0.4-1.4,0.6-2.1,0.7
		c-0.6,0-1.1-0.3-1.5-0.8c-0.2-0.2-0.3-0.5-0.4-0.8c-0.6,0.3-1.3,0.7-2,1c-0.8,0.4-1.6,0.4-2.4,0.1c-0.4-0.2-0.7-0.6-0.8-1
		c-0.1-0.5,0.1-1,0.4-1.4l-2.2,1c-0.7,0.3-1.5,0.4-2.2,0.2c-0.4-0.1-0.7-0.4-0.8-0.8c-0.4-0.8,0.1-1.7,1.1-2.5
		c3.1-2.1,6.4-4,9.9-5.6c-0.3,0-0.6,0-1,0c-0.9,0-1.7-0.5-2.2-1.3c-0.2-0.4-0.2-1,0.1-1.4c0.2-0.3,0.5-0.5,0.9-0.6
		c5.3-2.1,10.9-3.3,16.5-3.5c3.8,0,7.5,0.5,11.1,1.4l1.6,0.3c5.5,1,11.1,1.4,16.7,1.1c0.4,0,0.7,0.3,0.8,0.7c0,0.4-0.3,0.8-0.7,0.8
		c0,0,0,0,0,0c-5.7,0.2-11.4-0.2-17-1.2l-1.6-0.3c-3.5-0.9-7.1-1.3-10.8-1.4c-5.5,0.2-10.9,1.3-16,3.3h-0.1c0.2,0.2,0.5,0.3,0.8,0.3
		c2.2,0.1,4.3-0.1,6.4-0.7c0.4-0.1,0.8,0.1,0.9,0.5s-0.1,0.8-0.5,0.9l0,0c-5.3,1.8-10.4,4.4-15,7.6c-0.5,0.3-0.6,0.6-0.6,0.6
		c0.3,0.1,0.7,0,1-0.2l9.5-4.1c0.9-0.4,1.8-0.8,2.7-1.2c0.4-0.2,0.8,0,1,0.4c0,0,0,0,0,0.1c0.2,0.4,0,0.8-0.4,1c0,0,0,0,0,0
		l-2.6,1.2c-2.1,1-4.1,2.3-5.9,3.8c-0.4,0.3-0.4,0.5-0.4,0.5c0.4,0,0.7-0.1,1.1-0.3c3.7-1.7,7.2-3.8,10.5-6.1
		c0.3-0.2,0.8-0.2,1.1,0.2c0.2,0.3,0.2,0.8-0.2,1.1l-7.2,5.3c0.1,0.1,0.2,0.1,0.3,0.1c0.5,0,0.9-0.2,1.3-0.5l3.2-1.8l5.2-2.9
		c0.3-0.2,0.8-0.1,1,0.3c0.2,0.3,0.1,0.8-0.2,1l-5.3,3.5c-0.6,0.4-1.3,1-1.1,1.5s1.3,0.3,2.2-0.1c4.4-1.8,8.9-3.1,13.6-3.9
		c0.5-0.1,1.1-0.2,1.6-0.4c1.1-0.4,2.3-0.5,3.5-0.5c1.9,0.2,3.7,0.6,5.4,1.2c0.8,0.2,1.5,0.5,2.3,0.6c3.8,1,7.6,1.9,11.3,2.9
		c0.4,0.1,0.6,0.5,0.5,0.9c-0.1,0.4-0.5,0.6-0.9,0.5l0,0c-3.7-1-7.5-1.9-11.2-2.8c-0.8-0.2-1.5-0.4-2.3-0.7
		c-1.6-0.6-3.3-0.9-5.1-1.1c-1,0-2.1,0.2-3.1,0.5c-0.6,0.1-1.1,0.3-1.7,0.4c-4.6,0.8-9,2-13.3,3.8
		C351.8,352.3,351.1,352.4,350.4,352.5z"></path><path class="st3" d="M412.5,362c-12-0.8-23.9-2.6-35.5-5.2l4.7-20.2c0,0,29.3,2.7,30.9-2.6c0.3-3.9-3.1-12.2-7.9-23.5
		c-6.3-15,9.7-33,20.7-14.8c12.3,20.4,24.4,54.4,17.1,61.7C436.2,361.9,424.4,362.7,412.5,362"></path><path class="st0" d="M318.5,366.6c-14.1-0.7-22.2,14.9-11.5,28.1s103.5,24.8,103.5,24.8l4.5-15.4
		C415.1,404.1,332.8,367.6,318.5,366.6z"></path><path class="st0" d="M420.4,363.8c0,0-27.7,13.8-54.6,24.7c-16.8,6.8-34.3,11-41.8,14.2c0,0-1.5,5.5,2.6,12.6s9.8,5,9.8,5
		s69.9-0.4,90.6-18.5S446.3,353.2,420.4,363.8z"></path><polygon class="st1" points="381.2,382.6 367.2,337.4 302.1,337.4 317.7,382.6 	"></polygon><path class="st0" d="M381.2,383.4h-63.5c-0.3,0-0.6-0.2-0.7-0.5l-15.6-45.2c-0.1-0.2,0-0.5,0.1-0.7c0.1-0.2,0.4-0.3,0.6-0.3h65.1
		c0.3,0,0.6,0.2,0.7,0.5l14,45.2c0.1,0.2,0,0.5-0.1,0.7C381.7,383.3,381.5,383.4,381.2,383.4z M318.2,381.9h62l-13.5-43.7h-63.5
		L318.2,381.9z"></path><polygon class="st1" points="377.8,382.6 363.8,337.4 298.7,337.4 314.3,382.6 	"></polygon><path class="st0" d="M377.8,383.4h-63.5c-0.3,0-0.6-0.2-0.7-0.5L298,337.7c-0.1-0.2,0-0.5,0.1-0.7c0.1-0.2,0.4-0.3,0.6-0.3h65.1
		c0.3,0,0.6,0.2,0.7,0.5l14,45.2c0.1,0.2,0,0.5-0.1,0.7C378.3,383.3,378,383.4,377.8,383.4z M314.8,381.9h62l-13.5-43.7h-63.5
		L314.8,381.9z"></path><path class="st1" d="M324.3,410.4c-0.3,0-0.6-0.2-0.7-0.6c-0.7-2.4-0.8-4.9-0.3-7.3c0.1-0.2,0.2-0.4,0.4-0.5
		c3.2-1.4,8.4-3,14.5-4.9c7.9-2.5,17.8-5.5,27.3-9.4c15.8-6.4,31.8-13.7,42.5-18.8c0.4-0.2,0.8-0.1,1,0.3c0.2,0.4,0.1,0.8-0.3,1
		c0,0,0,0-0.1,0c-10.7,5.1-26.7,12.5-42.5,18.8c-9.6,3.9-19.5,6.9-27.4,9.4c-5.8,1.8-10.8,3.3-14,4.7c-0.3,2.1-0.2,4.2,0.4,6.2
		c0.1,0.4-0.1,0.8-0.5,0.9C324.4,410.4,324.3,410.4,324.3,410.4z"></path><path class="st1" d="M334.4,421.3c-2.2,0-5.8-0.9-8.5-5.6c-1.1-1.8-1.9-3.8-2.4-5.8c-0.1-0.4,0.1-0.8,0.5-0.9
		c0.4-0.1,0.8,0.1,0.9,0.6c0.5,1.9,1.2,3.7,2.2,5.4c3.7,6.4,8.8,4.7,8.9,4.7c0.1,0,0.2,0,0.2,0c0.7,0,69.8-0.6,90.1-18.4
		c13.5-11.9,17.2-28.6,11.5-35.5c-0.3-0.3-0.2-0.8,0.1-1.1c0.3-0.3,0.8-0.2,1.1,0.1l0,0c3.2,3.9,3.9,10.1,1.8,17.2
		c-2.5,7.9-7.1,14.9-13.4,20.3c-8.7,7.6-26.7,13.1-53.5,16.3c-19.1,2.2-36,2.4-37.5,2.5C335.8,421.2,335.1,421.3,334.4,421.3z"></path><path class="st0" d="M419.5,363c-5.2,0-10.5-0.3-15.7-0.9c-9.1-1-18.2-2.5-27.1-4.5c-0.4-0.1-0.6-0.5-0.5-0.9l4.7-20.2
		c0.1-0.4,0.4-0.6,0.8-0.6c11.8,1.1,28.9,1.2,30.1-2c0.1-1.8-1-3.6-2.8-6.6c-2.4-3.8-4.5-7.7-6.2-11.8c-0.1-0.4,0.1-0.8,0.5-1
		c0.4-0.1,0.7,0,0.9,0.4c1.7,4,3.8,7.9,6.1,11.6c2,3.2,3.2,5.3,3,7.6c0,0,0,0.1,0,0.1c-1.6,5.5-24.8,3.8-31,3.2l-4.4,18.8
		c6.2,1.4,50.2,10.7,64.2,0.4c0.3-0.2,0.8-0.2,1,0.1c0.2,0.3,0.2,0.8-0.2,1C438.3,361.3,430.4,363,419.5,363z"></path><path class="st0" d="M355.9,329.3c-0.4,0-0.7-0.3-0.8-0.8c0-2.1-1.3-4.7-2.6-7.4c-2.5-5.1-5.4-11-2.3-17c1.2-1.8,2.6-3.4,4.1-4.9
		c3-3.1,7-7.3,10-12.4c0.2-0.4,0.7-0.5,1-0.3s0.5,0.7,0.3,1l0,0c-3,5.3-7.2,9.6-10.2,12.7c-1.5,1.4-2.8,2.9-3.9,4.5
		c-2.7,5.4,0,10.8,2.3,15.7c1.4,2.9,2.8,5.6,2.8,8.1C356.6,328.9,356.3,329.3,355.9,329.3L355.9,329.3z"></path><path class="st1" d="M363,278.5c1.1,0.6,2.2,1.1,3.3,1.5c14.8,5.8,32.1,8.5,46.3,1.3c-0.2-2.4-0.3-4.7-0.5-7.1l4.3,5.6l8.3-4.9
		c-10.2-11.9-8.4-29.6-13.9-43.3c-2-4.9-7.6-9.8-12-8.6c-1.8-6.5-24.5-8.3-35,9C354.8,248.6,355.1,274.3,363,278.5L363,278.5z"></path><path class="st0" d="M393.2,286.4c-9.9,0-19.6-2.7-27.2-5.7c-1.2-0.4-2.3-1-3.4-1.5l-0.1-0.1c-2-1.1-3.7-3.6-4.8-7.2
		c-2.9-9.6-1.6-27.2,5.4-40.1c5.9-9.7,16.8-15.1,28.1-13.8c4.1,0.6,7.1,2.1,8.1,4.3c4.6-0.7,10.2,4.1,12.2,9.1
		c2.1,5.3,3.2,11.3,4.2,17c1.6,9.3,3.4,18.8,9.5,26.1c0.1,0.2,0.2,0.4,0.2,0.6c0,0.2-0.2,0.4-0.4,0.5l-8.3,4.9
		c-0.3,0.2-0.8,0.1-1-0.2l-2.8-3.6l0.3,4.6c0,0.3-0.1,0.6-0.4,0.7C406.8,285,400.1,286.5,393.2,286.4z M363.4,277.8
		c1,0.5,2.1,1,3.2,1.4c12.3,4.8,30.1,9,45.2,1.6l-0.4-6.6c0-0.3,0.2-0.6,0.5-0.8c0.3-0.1,0.7,0,0.9,0.2l3.9,5.1l7-4.1
		c-6-7.4-7.6-16.9-9.3-26.1c-1-5.7-2.1-11.6-4.1-16.7c-1.8-4.6-7.2-9.2-11.1-8.1c-0.4,0.1-0.8-0.1-0.9-0.5c-0.5-1.8-3.3-3.4-7.1-3.9
		c-10.7-1.2-21,3.9-26.6,13.1c-6.9,12.5-8.1,29.7-5.3,39C360.2,274.7,361.6,276.9,363.4,277.8L363.4,277.8z"></path><path class="st1" d="M373.8,269.9l-0.7,13.7c0,0,2.8,7.7,11.9,5.9s10.5-8.2,10.5-8.2l1.3-27.7c0,0-7.6-5.8-8.3-21.8
		c0,0-8.3,11.9-19.8,8.6c0,0-3,12.9-2.4,20C366.9,267.3,373.7,269.8,373.8,269.9L373.8,269.9z"></path><path class="st0" d="M382.4,290.5c-4.4,0-8.3-2.6-10-6.7c0-0.1,0-0.2,0-0.3l0.6-13.2c-2.3-1.1-7-4.1-7.5-9.9
		c-0.6-7.1,2.3-19.6,2.4-20.2c0-0.2,0.2-0.4,0.4-0.5c0.2-0.1,0.4-0.1,0.6-0.1c10.9,3,18.9-8.2,19-8.4c0.2-0.3,0.7-0.4,1-0.2
		c0.2,0.1,0.3,0.3,0.3,0.6c0.7,15.4,8,21.1,8,21.2c0.2,0.2,0.3,0.4,0.3,0.6l-1.3,27.7c0,0,0,0.1,0,0.1c-0.1,0.3-1.6,6.9-11.1,8.8
		C384.3,290.4,383.4,290.5,382.4,290.5z M373.9,283.5c0.4,1,3.2,6.9,11,5.3c8.1-1.6,9.8-7,9.9-7.6l1.2-27.2c-1.4-1.2-7.1-7-8.2-20.1
		c-1.3,1.6-2.9,2.9-4.5,4.2c-4.5,3.3-9.4,4.5-14.1,3.4c-0.6,2.8-2.7,13.1-2.2,19c0.4,5.1,4.5,7.7,6.9,8.8c0.1,0,0.2,0.1,0.3,0.2
		c0.1,0,0.1,0.1,0.1,0.2c0.1,0.1,0.1,0.3,0.1,0.5L373.9,283.5z"></path><path class="st1" d="M393,252.6c0.6-1,1.4-1.9,2.4-2.6c0.5-0.5,1-0.8,1.6-1c0.5-0.1,0.9-0.1,1.4,0c1.1,0.1,2.1,0.6,2.9,1.3
		c0.5,0.7,0.9,1.5,1,2.4c0.2,0.9,0.4,1.9,0.4,2.8c-0.1,3.9-3.4,7-7.4,6.9c0,0-0.1,0-0.1,0"></path><path class="st0" d="M395.5,263.1h-0.3c-0.4,0-0.7-0.4-0.7-0.8c0-0.4,0.4-0.7,0.8-0.7c0,0,0,0,0,0c3.5,0.2,6.5-2.6,6.7-6.1
		c0,0,0,0,0-0.1c0-0.9-0.1-1.8-0.3-2.6c-0.1-0.7-0.4-1.4-0.9-2c-0.6-0.6-1.5-1-2.4-1.1c-0.4-0.1-0.7-0.1-1.1,0
		c-0.5,0.2-1,0.5-1.4,0.9c-0.9,0.7-1.6,1.5-2.2,2.4c-0.2,0.4-0.6,0.5-1,0.4c-0.4-0.2-0.5-0.6-0.4-1c0,0,0-0.1,0.1-0.1
		c0.7-1.1,1.5-2,2.5-2.8c0.5-0.5,1.2-0.9,2-1.2c0.5-0.1,1.1-0.1,1.6-0.1c1.3,0.1,2.4,0.7,3.3,1.6c0.6,0.8,1,1.7,1.2,2.7
		c0.3,1,0.4,2,0.4,3C403.2,259.7,399.7,263.1,395.5,263.1L395.5,263.1z"></path><path class="st0" d="M376.8,256.4c-1.2,0.1-2.4-0.3-3.3-1.1c-1.2-1.4,1-6.2,2.3-9c0.2-0.4,0.6-0.6,1-0.4c0.4,0.2,0.6,0.6,0.4,1
		c0,0,0,0,0,0.1c-1.7,3.3-2.8,6.8-2.5,7.4c0.6,0.7,2.6,0.6,3.5,0.4c0.4-0.1,0.8,0.2,0.9,0.6c0.1,0.4-0.2,0.8-0.6,0.9
		C377.9,256.3,377.3,256.4,376.8,256.4z"></path><ellipse class="st0" transform="matrix(0.1125 -0.9937 0.9937 0.1125 98.943 603.1719)" cx="387.1" cy="246.2" rx="1.8" ry="1.3"></ellipse><ellipse class="st0" transform="matrix(0.1194 -0.9928 0.9928 0.1194 84.6137 585.8127)" cx="372.6" cy="245.2" rx="1.8" ry="1.3"></ellipse><path class="st0" d="M373.8,269.9c0,0,8.5,2.4,13.6-0.2c0,0-6.1,11.2-14.1,9.6L373.8,269.9L373.8,269.9z"></path><path class="st0" d="M375,280.2c-0.6,0-1.2-0.1-1.7-0.2c-0.4-0.1-0.6-0.4-0.6-0.8l0.5-9.4c0,0,0-0.1,0-0.1c0-0.2,0.2-0.4,0.3-0.5
		c0.2-0.1,0.4-0.1,0.6-0.1c0.1,0,8.2,2.3,13.1-0.2c0.4-0.2,0.8,0,1,0.4c0.1,0.2,0.1,0.4,0,0.6C387.9,270.5,382.5,280.2,375,280.2z
		 M374.2,278.7c5.1,0.6,9.5-4.7,11.5-7.5c-4.1,1.1-9.1,0.2-11.1-0.3L374.2,278.7z"></path><path class="st0" d="M377.9,263.1c-2.1,0-4.1-0.5-6-1.5c-0.4-0.2-0.5-0.7-0.3-1c0.2-0.3,0.6-0.5,1-0.3c0.2,0.1,6,3.3,11.2-0.8
		c0.3-0.2,0.7-0.2,1,0.1c0.2,0.3,0.2,0.8-0.1,1.1C382.8,262.2,380.4,263.1,377.9,263.1z"></path><path class="st0" d="M337.6,291.4c-0.8,0-1.6-0.2-2.3-0.6c-3.2-2.3-16.8-19.4-19.5-22.9l-19.3,15c-0.3,0.2-0.8,0.1-1-0.2
		c-0.2-0.3-0.2-0.7,0.1-1l19.9-15.5c0.3-0.3,0.8-0.2,1,0.1c0,0,0,0,0,0c5.6,7.2,17,21.3,19.6,23.1c2,1.5,11-2.4,17-4.9
		c3-1.3,5.6-2.4,7.3-2.9c0.4-0.1,0.8,0.1,0.9,0.5c0.1,0.4-0.1,0.8-0.5,0.9l0,0c-1.6,0.5-4.2,1.6-7.1,2.8
		C346.6,289.2,341,291.4,337.6,291.4z"></path><path class="st2" d="M269.2,214.5H325c2.8,0,5,2.2,5,5v0c0,2.8-2.2,5-5,5h-55.8c-2.8,0-5-2.2-5-5v0
		C264.2,216.7,266.4,214.5,269.2,214.5z"></path><path class="st2" d="M303.2,233.8h19.9c2.8,0,5,2.2,5,5v0c0,2.8-2.2,5-5,5h-19.9c-2.8,0-5-2.2-5-5v0
		C298.1,236,300.4,233.8,303.2,233.8z"></path></g><g id="Character_I"><polygon class="st1" points="319.2,169.5 192.9,169.5 200.9,113.7 327.2,113.7 	"></polygon><path class="st0" d="M319.2,170.3H192.9c-0.2,0-0.4-0.1-0.6-0.3c-0.1-0.2-0.2-0.4-0.2-0.6l8-55.8c0-0.4,0.4-0.6,0.7-0.7h126.3
		c0.2,0,0.4,0.1,0.6,0.3c0.1,0.2,0.2,0.4,0.2,0.6l-8,55.8C319.9,170,319.6,170.3,319.2,170.3z M193.8,168.8h124.8l7.8-54.3H201.6
		L193.8,168.8z"></path><polygon class="st1" points="313.4,169.5 187,169.5 195,113.7 321.4,113.7 	"></polygon><path class="st0" d="M313.4,170.3H187c-0.2,0-0.4-0.1-0.6-0.3c-0.1-0.2-0.2-0.4-0.2-0.6l8-55.8c0.1-0.4,0.4-0.6,0.7-0.6h126.4
		c0.2,0,0.4,0.1,0.6,0.3c0.1,0.2,0.2,0.4,0.2,0.6l-8,55.8C314,170,313.7,170.3,313.4,170.3z M187.9,168.8h124.8l7.8-54.3H195.7
		L187.9,168.8z"></path><path class="st1" d="M57,252.2C20.9,280,36.9,368.7,41.6,390.9c4.7,21.8,17.9,27.4,39,32.2c31.2,7.2,68.8,5.6,100.6,2.1
		s33-19.9,29.8-45.6c-0.9-7.1-2.4-17.7-7.8-21.5c-6.6-4.7-15.3-9.8-19.9-16.6c-15.1-21.9-15.9-47.8-26-71.6
		c-8-18.8-25.7-31.9-46.1-31.2S71.1,241.9,57,252.2z"></path><path class="st0" d="M131.4,429c-19.5,0-36.4-1.7-51-5.1c-19.4-4.5-34.6-9.8-39.5-32.8C37,372.8,19.4,280.3,56.4,251.7l0.1-0.1
		c15-10.9,36-13,54.5-13.6c20-0.6,38.4,11.8,46.9,31.7c3.9,9.3,6.5,19.1,9,28.5c3.8,14.6,7.8,29.7,16.9,42.9
		c3.7,5.4,10.1,9.8,15.8,13.6c1.4,0.9,2.7,1.8,4,2.7c5.2,3.7,7,12.8,8.1,22c2,15.9,2,27.4-4.2,35.2c-4.9,6.2-13.2,9.8-26.2,11.2
		C164.7,427.9,148.1,428.9,131.4,429z M57.4,252.8L57.4,252.8c-36.4,28-19,119.8-15.1,138c4.4,20.4,15.8,26.4,38.4,31.7
		c25.8,6,58.6,6.7,100.3,2c12.4-1.4,20.6-4.9,25.2-10.6c5.9-7.5,5.9-18.6,3.9-34.1c-0.7-5.6-2.1-17.1-7.5-21
		c-1.2-0.9-2.6-1.8-3.9-2.7c-5.8-4-12.3-8.4-16.2-14c-9.2-13.5-13.3-28.7-17.1-43.4c-2.5-9.4-5-19.1-8.9-28.3
		c-8.2-19.3-26-31.4-45.4-30.8C92.8,240.1,72.1,242.1,57.4,252.8L57.4,252.8z"></path><path class="st0" d="M135.2,246.3c0,0-56-1.8-67.2,15.4c-10.5,16.1-11,32.5-8.9,56.7c3.4,39.9,21.7,46.7,44,48.9
		c21.4,2.1,77-1.5,94.2-3.7c2.7-0.3-1.9-6.7-11.7-12.2s-25.1-10.4-29.8-21.5C141.2,295.2,148.6,244.1,135.2,246.3z"></path><path class="st1" d="M120.8,368.6c-7,0-13.1-0.2-17.8-0.6c-20.6-2-41.1-7.5-44.7-49.5c-2.2-25.4-1.4-41.2,9-57.2
		c11.2-17.2,64.6-15.8,67.8-15.7c1.4-0.2,2.8,0.1,3.9,1c4.4,3.4,5.6,15.2,7,30.2c1.6,16.3,3.5,36.5,10.4,52.9
		c3.5,8.4,13.4,13.2,22.1,17.4c2.6,1.3,5.1,2.5,7.4,3.7c7.6,4.2,13.4,9.8,12.9,12.4c-0.1,0.7-0.7,1.2-1.4,1.2
		C184.2,365.9,146.8,368.6,120.8,368.6z M131,247c-13.1,0-53.3,1.2-62.4,15.1c-10.2,15.7-10.9,31.2-8.8,56.2
		c3.5,40.9,23.3,46.2,43.3,48.2c21,2.1,76.8-1.5,94-3.7c0,0,0.1,0,0.1,0c0.3-0.9-3.5-6-12.1-10.8c-2.2-1.2-4.7-2.4-7.3-3.7
		c-8.9-4.3-19.1-9.2-22.8-18.1c-7-16.6-8.9-37-10.5-53.3c-1.3-14-2.5-26.1-6.4-29.1c-0.8-0.6-1.8-0.9-2.8-0.7h-0.1
		C135.1,247,133.6,247,131,247z"></path><path class="st1" d="M162.9,210.9c0,0,22.5-3.2,29.8-4.9c7.8-5.3,24.7-27,28.5-34.7c1.6-4.5,3.7-12,6.1-20.7c0.1-0.3,0.7-2,3.3-2.8
		c4.4-1.1,9-1.5,13.5-1.3c1.1,0.1,1.9,1.2,1.7,2.2c0,0.1,0,0.2-0.1,0.3c-0.6,2-6.8,15.1-9.5,20.4c2.6,0.1,5.8,0,8.1-0.1
		c-0.4,1.3-4.6,4.3-8.8,7.6c-2.8,2.5-6.2,8-7.4,10.1c-3,5.1-17.8,37.3-27.6,39.6c-13.4,3.2-50.3,10-50.3,10"></path><path class="st0" d="M150.3,237.5c-0.4,0-0.7-0.3-0.7-0.6c-0.1-0.4,0.2-0.8,0.6-0.9c0,0,0,0,0,0c0.4-0.1,37-6.9,50.2-10
		c7.7-1.9,19.5-24.6,24.5-34.3c1.2-2.2,2.1-4,2.6-4.9c1-1.7,4.6-7.6,7.6-10.3c1-0.8,1.9-1.5,2.8-2.2c1.9-1.4,3.9-3,5-4.1
		c-2.1,0-4.6,0.1-6.6,0c-0.3,0-0.5-0.1-0.6-0.4c-0.1-0.2-0.1-0.5,0-0.7c2.8-5.4,8.9-18.4,9.5-20.3c0.1-0.3,0-0.7-0.2-1
		c-0.2-0.3-0.5-0.5-0.9-0.5c-4.5-0.2-8.9,0.3-13.2,1.3c-2.4,0.7-2.7,2.2-2.7,2.2l-0.9,3.1c-2.1,7.3-3.9,13.6-5.3,17.6
		c-3.7,7.6-20.8,29.6-28.8,35.1c-0.1,0.1-0.2,0.1-0.2,0.1c-7.3,1.7-29.6,4.9-29.9,4.9c-0.4,0.1-0.8-0.2-0.8-0.6c0,0,0,0,0,0
		c-0.1-0.4,0.2-0.8,0.6-0.8c0,0,0,0,0,0c0.2,0,22.2-3.1,29.6-4.8c7.8-5.5,24.5-26.9,28.1-34.4c1.4-3.9,3.1-10.2,5.2-17.4l0.9-3.1
		c0.6-1.7,2-2.9,3.8-3.3c4.5-1.1,9.2-1.5,13.8-1.4c1.5,0.2,2.6,1.6,2.4,3.1c0,0.1,0,0.3-0.1,0.4c-0.6,2.1-6.1,13.8-9,19.5
		c2.3,0,4.9,0,6.9-0.1c0.2,0,0.5,0.1,0.6,0.3c0.1,0.2,0.2,0.4,0.1,0.7c-0.4,1.2-2.4,2.8-6.3,5.9l-2.8,2.1c-2.8,2.5-6.2,8.2-7.2,9.9
		c-0.5,0.9-1.4,2.6-2.6,4.9c-5.5,10.7-17.1,33.1-25.5,35.1c-13.3,3.2-49.9,10-50.3,10.1L150.3,237.5z"></path><path class="st1" d="M217.2,382.7c0,0,7,36,8.9,37.9s32.2,0.5,31.8-2.9s-16.3-8-16.3-8l-4.9-29.7"></path><path class="st0" d="M234.4,422.2c-4.5,0-8.1-0.3-8.9-1.1c-2-2-7.9-32.2-9.1-38.3c-0.1-0.4,0.2-0.8,0.6-0.9
		c0.4-0.1,0.8,0.2,0.9,0.6c0,0,0,0,0,0c2.7,13.7,7.4,36,8.7,37.5c1.5,1.1,19.1,0.8,27.4-1.1c2.8-0.6,3-1.2,3.1-1.2
		c-0.2-1.7-8.3-5.1-15.7-7.2c-0.3-0.1-0.5-0.3-0.5-0.6l-4.9-29.7c-0.1-0.4,0.2-0.8,0.6-0.9s0.8,0.2,0.9,0.6c0,0,0,0,0,0l4.8,29.2
		c4.3,1.3,16,5,16.4,8.5c0.1,0.7-0.4,1.4-1.5,1.9C253.8,421.1,242.6,422.2,234.4,422.2z"></path><path class="st1" d="M152.9,398.5c0,0-4.4,32.3-2.1,33.2s33.2,2.4,32.8-0.3s-15.8-7.9-15.8-7.9l5.5-31.5"></path><path class="st0" d="M171.2,433.7c-8.9,0-19.4-0.8-20.8-1.3c-0.8-0.3-1.9-0.8-0.2-17.7c0.8-8.1,1.9-16.2,1.9-16.3
		c0.1-0.4,0.4-0.7,0.8-0.6c0,0,0,0,0,0c0.4,0.1,0.7,0.4,0.6,0.8c-2,14.6-3.4,30.6-2.5,32.5c1.2,0.3,7.6,0.9,15.9,1.1
		c10.6,0.2,14.7-0.4,15.7-0.8c-0.9-1.5-8.4-4.8-15.2-7.1c-0.4-0.1-0.6-0.5-0.5-0.8l5.5-31.5c0-0.4,0.4-0.7,0.8-0.7s0.7,0.4,0.7,0.8
		c0,0,0,0.1,0,0.1l-5.4,30.9c14,4.8,15.5,7.5,15.7,8.3c0.1,0.4-0.1,0.9-0.5,1.1C182.6,433.4,177.3,433.7,171.2,433.7z M151.2,431.1
		L151.2,431.1z"></path><path class="st0" d="M197.6,326.1c4.1,9.6,19.2,65.8,19.2,65.8l22.8-2.3c0,0-4.8-67.8-8.8-84.6c-2.8-11.6-10.3-9.6-27-9.8
		c-18.7,0-38.9,0.6-38.9,0.6l24.6,31.2L197.6,326.1z"></path><path class="st3" d="M82.9,249.7c7.8,4.4,26.1,16,26.1,16l-2.1,5.2c0,0,1.2,5.6,0.7,9.5c0,3.7-2.3,8.4-4.5,14.4
		c-1.6,4.4-2.7,9-3.4,13.7l77.6-5.3c0,0-3.3-20.5-4.3-41.8c-0.2-4.4,2.7-10.4,2.3-14.6c-0.3-3-4.3-7.2-4.6-9.9
		c5.3-0.8,10.6-1.2,16-1.2c-1.1-8.1-2.2-24-3.7-28.7c-2.3-0.2-23.1-0.9-26.5-0.4c-16.1,2.3-32.5,5.1-47.8,10
		C101.5,218.8,89.3,239.6,82.9,249.7z"></path><path class="st0" d="M103.5,348.2c16.6,10.9,52.7,1.6,52.7,1.6l-6.2,52.3l27.1-0.3c0,0,28.2-83.5,24.9-92.1s-26.3-12.6-26.3-12.6
		l-69.8,8.9C105.9,306,86.9,337.3,103.5,348.2z"></path><path class="st0" d="M142,200.1c-1.3,1.3-1.7,5.4-3.2,6.6c-5.3,4.4-16.6,5.2-30.9,2c0.3-1.8,5.9-6.2,2.9-9.4
		c-5.7-6.3-10.3-10.7-11.1-23.2c-0.6-9.1,5.6-17.2,10.2-16.6c-1-9,20.4-15,32.5-6.9c10.6,7.1,11.2,13.4,11.2,22.7
		c0.1,9.3-3.9,18.1-10.8,24.2C142.4,199.7,142.2,199.9,142,200.1L142,200.1z"></path><path class="st1" d="M154.3,187.2c2.6,11.5-7.3,13.8-7.3,13.8l3,14.8c0,0,1.9,8.1-8.4,9.1c-6,0.5-11.9-2.1-15.6-6.9l-6.9-29.4
		c5.8-3.2,8.9-9.8,7.5-16.3c0,0,16.9,4.1,21.5-3.6C150.7,174.7,152.7,180.9,154.3,187.2z"></path><path class="st0" d="M139.8,225.7c-5.7,0-11.1-2.7-14.5-7.3c-0.1-0.1-0.1-0.2-0.1-0.3l-6.9-29.4c-0.1-0.3,0.1-0.7,0.4-0.8
		c5.6-3,8.4-9.3,7.1-15.5c0-0.2,0-0.5,0.2-0.7c0.2-0.2,0.4-0.2,0.7-0.2c0.2,0,16.5,3.9,20.7-3.2c0.1-0.2,0.4-0.4,0.7-0.4
		c0.3,0,0.5,0.2,0.6,0.4c2.6,6,4.7,12.3,6.2,18.7c2.3,10.2-4.9,13.6-7.2,14.4l2.9,14.1c0.4,2.2,0,4.5-1.3,6.3
		c-1.5,2.1-4.1,3.4-7.8,3.7C141,225.7,140.4,225.7,139.8,225.7z M126.6,217.7c3.5,4.5,9.1,7,14.9,6.5c3.2-0.3,5.4-1.3,6.7-3.1
		c1-1.5,1.3-3.4,1-5.1l-3-14.8c-0.1-0.4,0.2-0.8,0.6-0.9c0.4-0.1,9.2-2.3,6.8-12.9l0,0c-1.4-5.9-3.3-11.6-5.6-17.2
		c-4.8,5.6-16.7,3.8-20.4,3c0.9,6.3-2.1,12.5-7.5,15.7L126.6,217.7z"></path><path class="st1" d="M123.3,185.6c0,0-7.4-10-11.4-1.8s5.8,14.1,10.6,12.3"></path><path class="st0" d="M120.6,197.2c-3.1-0.1-5.9-1.5-8-3.8c-2.6-2.7-3.1-6.7-1.3-10c1.1-2.3,2.6-3.5,4.4-3.7c4-0.4,8.1,5,8.3,5.3
		c0.2,0.3,0.2,0.8-0.2,1c0,0,0,0,0,0c-0.3,0.2-0.8,0.1-1-0.2c-1-1.4-4.3-4.9-7-4.7c-1.2,0.1-2.3,1.1-3.1,2.8c-1.5,2.7-1,6.1,1.1,8.3
		c2.3,2.5,6.1,3.9,8.6,3c0.4-0.1,0.8,0.1,0.9,0.5c0.1,0.4-0.1,0.8-0.4,0.9C122.1,197.1,121.3,197.2,120.6,197.2z"></path><path class="st0" d="M146.8,201c-3.7,1.5-7.7,1.9-11.6,1.3c0,0,5.9,11.7,14,9.8L146.8,201z"></path><path class="st0" d="M147.4,213.1c-7.5,0-12.6-10-12.9-10.5c-0.1-0.3-0.1-0.6,0.1-0.8c0.2-0.2,0.5-0.3,0.7-0.3
		c3.8,0.6,7.6,0.1,11.1-1.2c0.2-0.1,0.4-0.1,0.6,0c0.2,0.1,0.3,0.3,0.4,0.5l2.4,11.2c0.1,0.4-0.2,0.8-0.6,0.9
		C148.7,213,148.1,213.1,147.4,213.1z M136.6,203.3c1.7,2.8,6.1,8.9,11.6,8.3l-2-9.5C143.2,203.1,139.9,203.5,136.6,203.3z"></path><ellipse class="st0" transform="matrix(0.9628 -0.2703 0.2703 0.9628 -43.481 43.3604)" cx="135.7" cy="179.6" rx="1.3" ry="2.2"></ellipse><ellipse class="st0" transform="matrix(0.9628 -0.2703 0.2703 0.9628 -42.3655 46.3532)" cx="147.1" cy="177" rx="1.1" ry="2"></ellipse><polygon class="st1" points="155.8,300.1 169.8,254.9 234.9,254.9 219.3,300.1 	"></polygon><path class="st0" d="M219.3,300.8h-63.5c-0.4,0-0.8-0.3-0.8-0.7c0-0.1,0-0.2,0-0.3l14-45.2c0.1-0.3,0.4-0.5,0.7-0.5h65.1
		c0.4,0,0.7,0.3,0.7,0.8c0,0.1,0,0.2,0,0.2L220,300.3C219.9,300.6,219.6,300.8,219.3,300.8z M156.8,299.3h62l15-43.7h-63.5
		L156.8,299.3z"></path><polygon class="st1" points="159.2,300.1 173.2,254.9 238.3,254.9 222.7,300.1 	"></polygon><path class="st0" d="M222.7,300.8h-63.5c-0.4,0-0.8-0.3-0.8-0.7c0-0.1,0-0.2,0-0.3l14-45.2c0.1-0.3,0.4-0.5,0.7-0.5h65.1
		c0.4,0,0.7,0.3,0.7,0.8c0,0.1,0,0.2,0,0.2l-15.6,45.2C223.3,300.6,223.1,300.8,222.7,300.8z M160.2,299.3h62l15.1-43.7h-63.5
		L160.2,299.3z"></path><path class="st1" d="M87.3,252.1c0,0-21.1,45.2-9.8,57.5s71.5-11.7,71.5-11.7c4.4-0.9,14.3-4.3,21.2-7.4c8.3-3.7,9.9-22.2,5.7-19.8
		c-4.1,2.2-8.4,4.1-12.7,5.9c0.4-1.8,1.3-3.7,1.3-5.2c-5.7,4.8-14.4,11.7-21.8,13c-4.9,0.8-10.1,0.9-15.1,1.3
		c-8.7,0.7-17.3,1.3-26,1.9c-13,0.9,3.1-10.4,7.2-22.2L87.3,252.1z"></path><path class="st0" d="M89.7,313.8c-5.7,0-10.2-1.1-12.7-3.7c-11.5-12.5,8.8-56.4,9.7-58.3c0.2-0.4,0.6-0.5,1-0.4c0,0,0,0,0.1,0
		l21.5,13.2c0.3,0.2,0.4,0.6,0.3,0.9c-3.4,9.5-6,18.2-6.9,21.1c9.2-0.6,17.4-1.2,24.9-1.8c1.5-0.1,2.9-0.2,4.4-0.3
		c3.5-0.1,7.1-0.5,10.6-1c7.1-1.2,15.7-7.9,21.5-12.8c0.3-0.3,0.8-0.2,1.1,0.1c0.1,0.1,0.2,0.3,0.2,0.5c-0.1,1.2-0.4,2.3-0.8,3.4
		l-0.2,0.5c3.8-1.5,7.6-3.3,11.2-5.2c0.6-0.4,1.3-0.4,1.9-0.1c1.5,0.9,1.5,3.9,1.4,5.6c-0.3,4.9-2.8,13.1-8.4,15.6
		c-6.9,3-16.8,6.5-21.3,7.4C146.6,299.6,110.5,313.8,89.7,313.8z M87.7,253.2c-2.7,6-19.6,45-9.6,55.9c4.4,4.8,18,4.3,39.2-1.5
		c16.2-4.4,31.2-10.4,31.4-10.5h0.1c4.4-0.9,14.2-4.3,21-7.3c4.3-1.9,7.1-8.8,7.5-14.3c0.2-2.7-0.3-4-0.6-4.2
		c-0.1-0.1-0.3,0-0.4,0.1c-4.2,2.2-8.4,4.2-12.8,5.9c-0.3,0.1-0.5,0.1-0.8-0.1c-0.2-0.2-0.3-0.5-0.2-0.7c0.2-0.7,0.4-1.4,0.6-2.1
		c0.1-0.4,0.2-0.7,0.3-1c-6.2,5.1-13.8,10.6-20.6,11.8c-3.6,0.5-7.1,0.9-10.7,1c-1.5,0.1-2.9,0.2-4.4,0.3c-7.8,0.6-16.3,1.2-26,1.9
		c-0.2,0-0.5-0.1-0.7-0.2c-0.2-0.2-0.2-0.4-0.1-0.7c0-0.1,3-10.2,7-21.6L87.7,253.2z"></path><path class="st0" d="M150.3,425.7c0,0,13.1,2.2,14.7,2.2l4-4.2c0.8-0.9,2.1-1.2,3.3-0.8c6.1,2.1,22.8,10.7,20.3,13.1
		c-3,2.8-44.4,1.3-48.1-0.7c-1.4-0.8-0.1-5.9,2.1-9.3c1-1.4,2.4-2.6,3.9-3.4L150.3,425.7z"></path><path class="st0" d="M222.9,410.1c0,0-0.6,2,0.8,2.2c5.2,0.7,12.7,2.4,14.3,2.4l4.6-4.3c1.2-1.1,3-1.5,4.5-0.9
		c6.7,2.4,24.2,9.1,21.7,11.4c-3,2.8-46.1,3.4-49.8,1.4s-0.2-7.8,0.9-9.6C220.8,411.5,221.7,410.6,222.9,410.1z"></path><path class="st1" d="M188,371.3c-0.1,0-0.1,0-0.2,0c-0.4-0.1-0.6-0.5-0.5-0.9c0,0,0,0,0,0c7.4-23.7,14.6-53.8,14.6-60.9
		c0-5-2.3-7.7-14.1-7.9c-0.4,0-0.8-0.3-0.8-0.8s0.3-0.8,0.8-0.8l0,0c9.8,0.1,15.5,1.7,15.6,9.4c0,7.2-7.1,37-14.7,61.3
		C188.6,371.1,188.3,371.3,188,371.3z"></path><path class="st0" d="M111.8,268c-0.1,0-0.3,0-0.4-0.1l-28.8-17.6c-0.3-0.2-0.4-0.7-0.2-1c0.2-0.3,0.7-0.5,1-0.2l28.2,17.2l8.4-11.9
		c0.2-0.3,0.7-0.4,1-0.2c0.3,0.2,0.4,0.7,0.2,1l-8.8,12.5C112.2,267.9,112,268,111.8,268z"></path><path class="st0" d="M171.4,239.7c-0.3,0-0.5-0.1-0.6-0.3c-2-3-3.6-9.4-3.7-9.7c-0.1-0.4,0.1-0.8,0.5-0.9c0.4-0.1,0.8,0.1,0.9,0.5
		c0,0,0,0,0,0c0,0.1,1.7,6.5,3.5,9.2c0.2,0.3,0.1,0.8-0.2,1C171.7,239.6,171.5,239.7,171.4,239.7z"></path><path class="st0" d="M144.8,188.4c-0.3,0-0.5-0.2-0.7-0.4c-0.2-0.4,0-0.8,0.3-1c0,0,0,0,0,0c0.5-0.3,1.9-1.2,1.7-2.1
		c-0.3-1.1-2.3-3.6-3.6-4.9c-0.2-0.3-0.1-0.8,0.2-1c0.3-0.2,0.6-0.2,0.9,0c0.4,0.4,3.5,3.8,3.9,5.5s-1.4,3.2-2.5,3.8
		C145,188.4,144.9,188.4,144.8,188.4z"></path><path class="st0" d="M144.2,195.7c-2,0.1-3.9-0.8-5.1-2.3c-0.1-0.2-0.2-0.5-0.1-0.7c0.1-0.2,0.3-0.4,0.5-0.4l9-2.1
		c0.4-0.1,0.8,0.2,0.9,0.6c0,0,0,0.1,0,0.1c0,2.3-1.7,4.3-4,4.7l0,0C145,195.7,144.6,195.7,144.2,195.7z M145.4,194.9L145.4,194.9z
		 M141.3,193.4c1.2,0.7,2.6,1,4,0.7c1.2-0.2,2.2-1.1,2.6-2.2L141.3,193.4z"></path><path class="st1" d="M151.8,380.6h-0.1c-0.4,0-0.7-0.4-0.7-0.8c0,0,0,0,0,0l5.9-47.5c0.1-0.4,0.4-0.7,0.8-0.6
		c0.4,0.1,0.7,0.4,0.7,0.8c0,0,0,0,0,0l-5.9,47.5C152.5,380.4,152.2,380.6,151.8,380.6z"></path><path class="st1" d="M129.7,354.4c-11.8,0-20.8-1.9-26.6-5.6c-9.2-5.8-8.1-20.4-4-32c0.1-0.4,0.6-0.6,1-0.5c0.4,0.1,0.6,0.6,0.5,1
		l0,0c-6,16.9-2.2,26.7,3.4,30.2c15.5,9.8,50.6,3.1,51,3c0.4-0.1,0.8,0.2,0.9,0.6c0.1,0.4-0.2,0.8-0.6,0.9
		c-6.6,1.2-13.2,1.9-19.9,2.2C133.3,354.4,131.5,354.4,129.7,354.4z"></path><path class="st2" d="M209.3,124.6h95.5c2.8,0,5,2.2,5,5l0,0c0,2.8-2.2,5-5,5h-95.5c-2.8,0-5-2.2-5-5l0,0
		C204.3,126.8,206.6,124.6,209.3,124.6z"></path><path class="st2" d="M274.1,145.4h27.6c2.8,0,5,2.2,5,5v0c0,2.8-2.2,5-5,5h-27.6c-2.8,0-5-2.2-5-5v0
		C269.1,147.6,271.3,145.4,274.1,145.4z"></path></g></svg>