<svg xmlns="http://www.w3.org/2000/svg" version="1.1" xmlns:xlink="http://www.w3.org/1999/xlink" viewBox="0 0 9.702123924570532 3.2847369907689408"><g transform="matrix(0.752176664535983,0,0,0.752176664535983,3.264030816648333,1.2474757465030795)"><g transform="matrix(1,0,0,1,0,0)" clip-path="url(#SvgjsClipPath55646)"><g clip-path="url(#SvgjsClipPath55644b90581f1-37b5-4330-9178-843a7d2b83ee)"><path d=" M -0.7899670278420283 1.180590826857172 L -0.7899670278420283 1.180590826857172 L -0.7899670278420283 1.180590826857172 L -0.7326476112862101 1.2379102434129905 C -0.8444204735700558 1.2937966745549132 -0.9676572191650654 1.3267553390745084 -1.100924862657343 1.3267553390745084 C -1.0994918772434474 1.3267553390745084 -1.0994918772434474 1.3267553390745084 -1.098058891829552 1.3267553390745084 L -1.098058891829552 1.5187753845364997 C -0.913203773437038 1.5173423991226045 -0.7398125383556877 1.4671879096362637 -0.5922150407244551 1.378342813974745 L -0.7326476112862101 1.2379102434129896 L -0.7899670278420283 1.180590826857172 Z" fill="#e5496f" transform="matrix(1,0,0,1,0,0)" fill-rule="nonzero"></path></g><g clip-path="url(#SvgjsClipPath55644b90581f1-37b5-4330-9178-843a7d2b83ee)"><path d=" M -1.098058891829552 -0.4788062824337679 L -1.098058891829552 -0.2867862369717765 C -0.6538334135219599 -0.28392026614398563 -0.29558706004809565 0.07575907274377425 -0.29558706004809565 0.519984551051366 C -0.29558706004809565 0.6933757861327162 -0.3500405057761231 0.8553031379029031 -0.4446175430932233 0.9871377959812851 L -0.4990709888212508 0.9326843502532579 C -0.4990709888212508 0.9326843502532579 -0.5005039742351463 0.9341173356671532 -0.5005039742351463 0.9341173356671532 L -0.30848392877315467 1.126137381129145 C -0.18094822693645884 0.9584780877033762 -0.10499999999999998 0.7492622172746394 -0.10499999999999998 0.5214175364652612 C -0.10499999999999954 -0.03028184788448962 -0.5492254783075916 -0.47594031160597694 -1.098058891829552 -0.4788062824337679 Z" fill="#e5496f" transform="matrix(1,0,0,1,0,0)" fill-rule="nonzero"></path></g><g clip-path="url(#SvgjsClipPath55644b90581f1-37b5-4330-9178-843a7d2b83ee)"><path d=" M -1.098058891829552 -0.2867862369717766 L -1.098058891829552 -0.27818832448840386 C -1.5408513847232483 -0.27818832448840386 -1.900530723611008 0.08149101439935613 -1.900530723611008 0.5242835072930524 C -1.900530723611008 0.9656430147728533 -1.5422843701371438 1.3253223536606136 -1.100924862657343 1.3267553390745088 C -0.9690902045789607 1.3267553390745088 -0.8444204735700562 1.2937966745549132 -0.7326476112862101 1.237910243412991 L -0.7899670278420283 1.1805908268571725 L -0.7899670278420283 1.1805908268571725 L -0.897440933884188 1.0731169208150133 C -0.9619252775094835 1.097477672851236 -1.0307085773764653 1.1103745415762951 -1.1023578480712382 1.1103745415762951 C -1.4276455370255072 1.108941556162399 -1.692747838596167 0.8452722400056351 -1.692747838596167 0.519984551051366 C -1.692747838596167 0.19469686209709713 -1.4276455370255072 -0.07040543947356248 -1.1023578480712382 -0.07040543947356248 C -0.7770701591169693 -0.07040543947356248 -0.5119678575463096 0.19469686209709713 -0.5119678575463096 0.519984551051366 C -0.5119678575463096 0.6346233841630028 -0.5449265220659054 0.7406643047912665 -0.6008129532078281 0.8309423858666803 L -0.49907098882125034 0.9326843502532579 L -0.4446175430932229 0.9871377959812851 C -0.35004050577612267 0.8553031379029029 -0.2955870600480952 0.6933757861327162 -0.2955870600480952 0.519984551051366 C -0.29558706004809565 0.07575907274377425 -0.6538334135219599 -0.2839202661439857 -1.098058891829552 -0.2867862369717766 Z" fill="#6a85c4" transform="matrix(1,0,0,1,0,0)" fill-rule="nonzero"></path></g><g clip-path="url(#SvgjsClipPath55644b90581f1-37b5-4330-9178-843a7d2b83ee)"><path d=" M -0.8544513714673243 0.889694787836394 C -0.897440933884188 0.8467052254195303 -0.897440933884188 0.7779219255525484 -0.8544513714673243 0.7363653485495801 C -0.847286444397847 0.7292004214801028 -0.8415545027422651 0.7249014652384164 -0.8329565902588922 0.72060250899673 C -0.8501524152256377 0.7105716110994619 -0.8687812256062788 0.7048396694438802 -0.8888430214008152 0.7048396694438802 C -0.9175027296787244 0.7048396694438802 -0.9447294525427383 0.7148705673411483 -0.96622423375117 0.7363653485495804 C -1.0092137961680339 0.7779219255525486 -1.0092137961680339 0.8467052254195305 -0.96622423375117 0.8896947878363942 L -0.3729682723984502 1.482950749189114 C -0.3514734911900186 1.5044455303975455 -0.3228137829121096 1.5144764282948135 -0.29558706004809565 1.5144764282948135 C -0.2769582496674545 1.5144764282948135 -0.2568964538729184 1.5087444866392317 -0.2397006289061725 1.4987135887419636 C -0.24686555597564985 1.494414632500277 -0.2540304830451272 1.4886826908446955 -0.2611954101146048 1.482950749189114 L -0.8544513714673243 0.889694787836394 Z" fill="#6a85c4" transform="matrix(1,0,0,1,0,0)" fill-rule="nonzero"></path></g><g clip-path="url(#SvgjsClipPath55644b90581f1-37b5-4330-9178-843a7d2b83ee)"><path d=" M -2.200024675115159 0.5242835072930524 C -2.200024675115159 1.1318693227847265 -1.705644707321226 1.6262492905786594 -1.098058891829552 1.6262492905786594 L -1.098058891829552 1.5187753845364997 L -1.098058891829552 1.3267553390745084 C -1.0994918772434474 1.3267553390745084 -1.0994918772434474 1.3267553390745084 -1.100924862657343 1.3267553390745084 C -1.5422843701371438 1.3253223536606136 -1.900530723611008 0.9656430147728531 -1.900530723611008 0.5242835072930522 C -1.900530723611008 0.08149101439935591 -1.5408513847232483 -0.278188324488404 -1.098058891829552 -0.278188324488404 L -1.098058891829552 -0.28678623697177685 L -1.098058891829552 -0.4788062824337679 L -1.098058891829552 -0.576249290578659 C -1.705644707321226 -0.576249290578659 -2.200024675115159 -0.08330230819862167 -2.200024675115159 0.5242835072930524 Z" fill="#132780" transform="matrix(1,0,0,1,0,0)" fill-rule="nonzero"></path></g><g clip-path="url(#SvgjsClipPath55644b90581f1-37b5-4330-9178-843a7d2b83ee)"><path d=" M -0.21820584769774087 1.3296213099022998 L -0.8114618090504606 0.7363653485495801 C -0.818626736119938 0.730633406893998 -0.8257916631894149 0.7249014652384164 -0.8329565902588922 0.72060250899673 C -0.8415545027422651 0.7249014652384164 -0.847286444397847 0.7292004214801028 -0.8544513714673243 0.7363653485495801 C -0.897440933884188 0.7779219255525484 -0.897440933884188 0.8467052254195303 -0.8544513714673243 0.889694787836394 L -0.2611954101146048 1.4829507491891136 C -0.2540304830451272 1.4886826908446955 -0.24686555597564985 1.494414632500277 -0.2397006289061725 1.4987135887419636 C -0.23110271642280011 1.494414632500277 -0.22537077476721823 1.4901156762585908 -0.21820584769774087 1.4829507491891136 C -0.17664927069477265 1.4399611867722495 -0.17664927069477265 1.3711778869052682 -0.21820584769774087 1.3296213099022998 Z" fill="#132780" transform="matrix(1,0,0,1,0,0)" fill-rule="nonzero"></path></g></g><g><path d=" M 0.54 1.065 Q 0.40800000000000003 1.065 0.309 1.02075 Q 0.21 0.9765 0.156 0.88425 Q 0.10200000000000001 0.792 0.10200000000000001 0.6495 L 0.10200000000000001 0.03750000000000009 Q 0.10200000000000001 0.02100000000000013 0.1125 0.010499999999999954 Q 0.123 0 0.1395 0 L 0.303 0 Q 0.3195 0 0.33 0.010499999999999954 Q 0.3405 0.02100000000000013 0.3405 0.03750000000000009 L 0.3405 0.648 Q 0.3405 0.7590000000000001 0.393 0.8130000000000001 Q 0.4455 0.867 0.54 0.867 Q 0.633 0.867 0.6855 0.8130000000000001 Q 0.738 0.7590000000000001 0.738 0.648 L 0.738 0.03750000000000009 Q 0.738 0.02100000000000013 0.74925 0.010499999999999954 Q 0.7605000000000001 0 0.7755 0 L 0.9405 0 Q 0.9555 0 0.966 0.010499999999999954 Q 0.9765 0.02100000000000013 0.9765 0.03750000000000009 L 0.9765 0.6495 Q 0.9765 0.792 0.9225 0.88425 Q 0.8685 0.9765 0.771 1.02075 Q 0.6735 1.065 0.54 1.065 M 1.2269912109375 1.05 Q 1.2104912109375001 1.05 1.1999912109375 1.0395 Q 1.1894912109375 1.0290000000000001 1.1894912109375 1.0125 L 1.1894912109375 0.03750000000000009 Q 1.1894912109375 0.02100000000000013 1.1999912109375 0.010499999999999954 Q 1.2104912109375001 0 1.2269912109375 0 L 1.3964912109375 0 Q 1.4129912109375 0 1.4234912109375 0.010499999999999954 Q 1.4339912109375 0.02100000000000013 1.4339912109375 0.03750000000000009 L 1.4339912109375 1.0125 Q 1.4339912109375 1.0290000000000001 1.4234912109375 1.0395 Q 1.4129912109375 1.05 1.3964912109375 1.05 L 1.2269912109375 1.05 M 1.639452392578125 1.05 Q 1.622952392578125 1.05 1.612452392578125 1.03875 Q 1.601952392578125 1.0275 1.601952392578125 1.0125 L 1.601952392578125 0.8865000000000001 Q 1.601952392578125 0.8655 1.610952392578125 0.8520000000000001 Q 1.619952392578125 0.8385 1.624452392578125 0.8325 L 2.128452392578125 0.1995 L 1.652952392578125 0.1995 Q 1.637952392578125 0.1995 1.627452392578125 0.18900000000000006 Q 1.616952392578125 0.1785 1.616952392578125 0.16349999999999998 L 1.616952392578125 0.03750000000000009 Q 1.616952392578125 0.02100000000000013 1.627452392578125 0.010499999999999954 Q 1.637952392578125 0 1.652952392578125 0 L 2.389452392578125 0 Q 2.4059523925781248 0 2.417202392578125 0.010499999999999954 Q 2.428452392578125 0.02100000000000013 2.428452392578125 0.03750000000000009 L 2.428452392578125 0.16200000000000003 Q 2.428452392578125 0.1785 2.422452392578125 0.19125000000000003 Q 2.416452392578125 0.20400000000000007 2.408952392578125 0.21300000000000008 L 1.918452392578125 0.849 L 2.407452392578125 0.849 Q 2.423952392578125 0.849 2.434452392578125 0.8595 Q 2.444952392578125 0.8700000000000001 2.444952392578125 0.8865000000000001 L 2.444952392578125 1.0125 Q 2.444952392578125 1.0290000000000001 2.434452392578125 1.0395 Q 2.423952392578125 1.05 2.407452392578125 1.05 L 1.639452392578125 1.05 M 3.04048828125 1.065 Q 2.90848828125 1.065 2.80948828125 1.02075 Q 2.71048828125 0.9765 2.65648828125 0.88425 Q 2.60248828125 0.792 2.60248828125 0.6495 L 2.60248828125 0.03750000000000009 Q 2.60248828125 0.02100000000000013 2.61298828125 0.010499999999999954 Q 2.62348828125 0 2.63998828125 0 L 2.80348828125 0 Q 2.81998828125 0 2.83048828125 0.010499999999999954 Q 2.84098828125 0.02100000000000013 2.84098828125 0.03750000000000009 L 2.84098828125 0.648 Q 2.84098828125 0.7590000000000001 2.89348828125 0.8130000000000001 Q 2.94598828125 0.867 3.04048828125 0.867 Q 3.13348828125 0.867 3.18598828125 0.8130000000000001 Q 3.23848828125 0.7590000000000001 3.23848828125 0.648 L 3.23848828125 0.03750000000000009 Q 3.23848828125 0.02100000000000013 3.24973828125 0.010499999999999954 Q 3.26098828125 0 3.27598828125 0 L 3.44098828125 0 Q 3.45598828125 0 3.46648828125 0.010499999999999954 Q 3.47698828125 0.02100000000000013 3.47698828125 0.03750000000000009 L 3.47698828125 0.6495 Q 3.47698828125 0.792 3.42298828125 0.88425 Q 3.36898828125 0.9765 3.27148828125 1.02075 Q 3.1739882812499998 1.065 3.04048828125 1.065 M 3.7274794921875 1.05 Q 3.7109794921875 1.05 3.7004794921875 1.0395 Q 3.6899794921875 1.0290000000000001 3.6899794921875 1.0125 L 3.6899794921875 0.03750000000000009 Q 3.6899794921875 0.02100000000000013 3.7004794921875 0.010499999999999954 Q 3.7109794921875 0 3.7274794921875 0 L 4.1369794921875 0 Q 4.2584794921875 0 4.3477294921875 0.03750000000000009 Q 4.4369794921875 0.07500000000000007 4.4872294921875 0.15075000000000005 Q 4.5374794921875 0.22650000000000003 4.5374794921875 0.3390000000000001 Q 4.5374794921875 0.45300000000000007 4.4872294921875 0.52725 Q 4.4369794921875 0.6015 4.3477294921875 0.6375 Q 4.2584794921875 0.6735 4.1369794921875 0.6735 L 3.9359794921875 0.6735 L 3.9359794921875 1.0125 Q 3.9359794921875 1.0290000000000001 3.9254794921875 1.0395 Q 3.9149794921875 1.05 3.8984794921875 1.05 L 3.7274794921875 1.05 M 3.9314794921875 0.48750000000000004 L 4.1294794921874995 0.48750000000000004 Q 4.2059794921875 0.48750000000000004 4.2487294921875005 0.45000000000000007 Q 4.2914794921875 0.4125 4.2914794921875 0.3375 Q 4.2914794921875 0.2715000000000001 4.2532294921875 0.22950000000000004 Q 4.2149794921875 0.1875 4.1294794921874995 0.1875 L 3.9314794921875 0.1875 L 3.9314794921875 0.48750000000000004 M 4.606428955078125 1.05 Q 4.589928955078125 1.05 4.579428955078125 1.0395 Q 4.568928955078125 1.0290000000000001 4.568928955078125 1.0125 L 4.568928955078125 0.8445 Q 4.568928955078125 0.8280000000000001 4.579428955078125 0.8175 Q 4.589928955078125 0.807 4.606428955078125 0.807 L 4.774428955078125 0.807 Q 4.790928955078125 0.807 4.801428955078125 0.8175 Q 4.811928955078125 0.8280000000000001 4.811928955078125 0.8445 L 4.811928955078125 1.0125 Q 4.811928955078125 1.0290000000000001 4.801428955078125 1.0395 Q 4.790928955078125 1.05 4.774428955078125 1.05 L 4.606428955078125 1.05 M 4.946930419921875 1.05 Q 4.933430419921875 1.05 4.924430419921875 1.0402500000000001 Q 4.915430419921875 1.0305 4.915430419921875 1.0185 Q 4.915430419921875 1.0110000000000001 4.916930419921875 1.0050000000000001 L 5.273930419921875 0.04049999999999998 Q 5.278430419921875 0.02400000000000002 5.291930419921875 0.01200000000000001 Q 5.305430419921875 0 5.329430419921875 0 L 5.521430419921875 0 Q 5.545430419921875 0 5.558930419921875 0.01200000000000001 Q 5.572430419921875 0.02400000000000002 5.576930419921875 0.04049999999999998 L 5.933930419921875 1.0050000000000001 Q 5.935430419921875 1.0110000000000001 5.935430419921875 1.0185 Q 5.935430419921875 1.0305 5.926430419921875 1.0402500000000001 Q 5.917430419921875 1.05 5.903930419921875 1.05 L 5.747930419921875 1.05 Q 5.725430419921875 1.05 5.714930419921875 1.0395 Q 5.704430419921875 1.0290000000000001 5.701430419921875 1.02 L 5.636930419921875 0.8520000000000001 L 5.213930419921875 0.8520000000000001 L 5.149430419921875 1.02 Q 5.146430419921875 1.0290000000000001 5.135930419921875 1.0395 Q 5.125430419921875 1.05 5.102930419921875 1.05 L 4.946930419921875 1.05 M 5.269430419921875 0.6585000000000001 L 5.579930419921875 0.6585000000000001 L 5.4254304199218755 0.22650000000000003 L 5.269430419921875 0.6585000000000001 M 6.101899658203125 1.05 Q 6.085399658203125 1.05 6.074899658203125 1.0395 Q 6.064399658203125 1.0290000000000001 6.064399658203125 1.0125 L 6.064399658203125 0.03750000000000009 Q 6.064399658203125 0.02100000000000013 6.074899658203125 0.010499999999999954 Q 6.085399658203125 0 6.101899658203125 0 L 6.271399658203125 0 Q 6.287899658203125 0 6.298399658203125 0.010499999999999954 Q 6.308899658203125 0.02100000000000013 6.308899658203125 0.03750000000000009 L 6.308899658203125 1.0125 Q 6.308899658203125 1.0290000000000001 6.298399658203125 1.0395 Q 6.287899658203125 1.05 6.271399658203125 1.05 L 6.101899658203125 1.05" fill="#6a85c4" fill-rule="nonzero"></path></g><g></g></g><defs><clipPath id="SvgjsClipPath55646"><path d=" M -2.200024675115159 -0.576249290578659 h 2.095024675115159 v 2.202498581157318 h -2.095024675115159 Z"></path></clipPath><clipPath id="SvgjsClipPath55644b90581f1-37b5-4330-9178-843a7d2b83ee"><path d=" M -2.200024675115159 -0.576249290578659 L -0.10499999999999998 -0.576249290578659 L -0.10499999999999998 1.626249290578659 L -2.2000246751151584 1.626249290578659 Z"></path></clipPath></defs></svg>